<svg id="Layer_1" data-name="Layer 1" xmlns="http://www.w3.org/2000/svg" xmlns:xlink="http://www.w3.org/1999/xlink" viewBox="0 0 512 512"><defs><style>.cls-1{fill:url(#linear-gradient);}.cls-2{fill:url(#linear-gradient-2);}.cls-3{fill:url(#linear-gradient-3);}</style><linearGradient id="linear-gradient" y1="256.14" x2="201.87" y2="256.14" gradientUnits="userSpaceOnUse"><stop offset="0" stop-color="#ad1f24"/><stop offset="1" stop-color="#861619"/></linearGradient><linearGradient id="linear-gradient-2" x1="204.05" y1="256" x2="308.49" y2="256" xlink:href="#linear-gradient"/><linearGradient id="linear-gradient-3" x1="310.13" y1="256.24" x2="512" y2="256.24" xlink:href="#linear-gradient"/></defs><title>Portfolio</title><path class="cls-1" d="M0,260.9v-9.78A18.23,18.23,0,0,1,9.72,235l165.84-87.64a17.93,17.93,0,0,1,26.31,15.85h0a18.22,18.22,0,0,1-10.08,16.31L38.84,256l153,76.48a18.22,18.22,0,0,1,10.08,16.31h0a18.22,18.22,0,0,1-26.76,16.09L9.68,277A18.24,18.24,0,0,1,0,260.9Z"/><path class="cls-2" d="M293.19,53.58h0a15.3,15.3,0,0,1,15,18.26L234.36,446.09a15.3,15.3,0,0,1-15,12.33h0a15.29,15.29,0,0,1-15-18.26L278.18,65.91A15.3,15.3,0,0,1,293.19,53.58Z"/><path class="cls-3" d="M310.13,348.79h0a18.22,18.22,0,0,1,10.08-16.31l153-76.48-153.4-76.7a17.4,17.4,0,0,1-9.63-15.58h0a18.23,18.23,0,0,1,26.75-16.13L502.28,235A18.23,18.23,0,0,1,512,251.12v9.78A18.24,18.24,0,0,1,502.32,277L336.89,364.88A18.22,18.22,0,0,1,310.13,348.79Z"/></svg>