<svg id="Layer_1" data-name="Layer 1" xmlns="http://www.w3.org/2000/svg" xmlns:xlink="http://www.w3.org/1999/xlink" viewBox="0 0 512 512"><defs><style>.cls-1{fill:url(#linear-gradient);}</style><linearGradient id="linear-gradient" x1="60.03" y1="256" x2="451.97" y2="256" gradientUnits="userSpaceOnUse"><stop offset="0" stop-color="#ad1f24"/><stop offset="1" stop-color="#861619"/></linearGradient></defs><title>Portfolio</title><path class="cls-1" d="M256,58.24c-108.06,0-196,87.91-196,196v81.52a17.18,17.18,0,0,0,34.36,0V323.1h11.8v45.1a25.77,25.77,0,1,0,51.54,0V243.64a25.77,25.77,0,1,0-51.54,0v45.1H94.39V254.21C94.39,165.1,166.89,92.6,256,92.6s161.61,72.5,161.61,161.61v34.54H405.8v-45.1a25.78,25.78,0,0,0-51.55,0V368.21a25.78,25.78,0,0,0,51.55,0v-45.1h20.4v15.22a87.62,87.62,0,0,1-87.52,87.51H296.76a18.23,18.23,0,0,0-16.6-10.74H254.39a18.24,18.24,0,0,0-16.6,10.74h-1.66a8.59,8.59,0,0,0,0,17.18h1.66a18.24,18.24,0,0,0,16.6,10.74h25.77A18.23,18.23,0,0,0,296.76,443h41.92a104.82,104.82,0,0,0,104.7-104.69v-17.6a17.11,17.11,0,0,0,8.59-14.8V254.21C452,146.15,364.06,58.24,256,58.24Z"/></svg>