<svg id="Layer_1" data-name="Layer 1" xmlns="http://www.w3.org/2000/svg" xmlns:xlink="http://www.w3.org/1999/xlink" viewBox="0 0 511.94 511.94"><defs><style>.cls-1{fill:url(#linear-gradient);}</style><linearGradient id="linear-gradient" x1="26.71" y1="255.97" x2="485.22" y2="255.97" gradientUnits="userSpaceOnUse"><stop offset="0" stop-color="#ad1f24"/><stop offset="1" stop-color="#861619"/></linearGradient></defs><title>Portfolio</title><path class="cls-1" d="M482,119.32a42.28,42.28,0,0,0-9.18-13.82L406.43,39.14a42.68,42.68,0,0,0-60.15,0L59.6,325.82c-.16.15-.33.28-.48.44a11.92,11.92,0,0,0-3.38,6.66h0c0,.19-.06.38-.09.56h0v.11L27.49,460.52a10.31,10.31,0,0,0-.29,1h0v0l0,.16,0,.17v0l0,.09,0,.17,0,.12,0,.2v.08l0,.24v0l0,.25v.08l0,.22v.12a19.23,19.23,0,0,0,14.58,21.16v0h0v0a11.12,11.12,0,0,0,2,.32,18.22,18.22,0,0,0,3.36.16,18.93,18.93,0,0,0,4.3-.7L178.9,456.17c.28,0,.57-.09.85-.15h0c.15,0,.29-.08.43-.12s.37-.09.56-.15l.6-.21.5-.19.63-.29.42-.22.65-.38.34-.22.67-.49.27-.22c.23-.19.45-.39.67-.6,0-.05.11-.09.16-.15l0,0,.12-.12.08-.07,286.9-286.91A42.49,42.49,0,0,0,482,119.32ZM42.13,465.15l-3.24-.72,7,1.55h0Zm3.81.84h0Zm0-.07V466h0v-.06l.32-1.45h0ZM314.07,105.34l92.52,92.52L177.15,427.3l-12.86-12.86L84.63,334.78ZM52.19,459.74l22.4-101,39.32,39.32,39.29,39.29Zm407.62-317a18.27,18.27,0,0,1-4,5.92l-32.21,32.21L331.07,88.35l32.21-32.21a18.35,18.35,0,0,1,5.93-4,19.34,19.34,0,0,1,14.3,0,18.2,18.2,0,0,1,5.92,4L455.8,122.5a18.31,18.31,0,0,1,4,5.93,19.21,19.21,0,0,1,0,14.3Z"/></svg>